<svg xmlns="http://www.w3.org/2000/svg" viewBox="0 0 16 16">
  <path d="M9.243 1l.707 1.414a6 6 0 0 1 1.636.946L13 2.757l1.414 1.414-1.603 1.414c.132.53.204 1.085.214 1.65l1.975.707v2.828l-1.975.707a6.996 6.996 0 0 1-.214 1.65l1.603 1.414L13 13.243l-1.414-1.603a6 6 0 0 1-1.636.946L9.243 14H6.757l-.707-1.414a6 6 0 0 1-1.636-.946L3 13.243l-1.414-1.414 1.603-1.414A6.996 6.996 0 0 1 3.975 8l-1.975-.707V4.465L3.975 3.758c.01-.565.082-1.12.214-1.65L2.586.757 4 0l1.414 1.603c.516-.382 1.07-.678 1.65-.889L9.243 1zM8 11a3 3 0 1 0 0-6 3 3 0 0 0 0 6z"/>
</svg>

