<svg width="24" height="24" viewBox="0 0 24 24" fill="none" xmlns="http://www.w3.org/2000/svg">
<g clip-path="url(#clip0_4045_16067)">
<path fill-rule="evenodd" clip-rule="evenodd" d="M13.4408 14.9937C14.2216 14.535 14.7914 13.78 15.025 12.8946C15.2586 12.0092 15.137 11.0658 14.6868 10.2715C14.2347 9.4779 13.4914 8.89907 12.6199 8.66194C11.7484 8.42481 10.8199 8.54875 10.0383 9.00657C9.65036 9.23229 9.31042 9.53404 9.03814 9.89432C8.76587 10.2546 8.56669 10.6663 8.45214 11.1054C8.33527 11.5438 8.30515 12.0014 8.36353 12.4518C8.42191 12.9021 8.56763 13.3362 8.79224 13.7289C9.24475 14.5219 9.98808 15.1004 10.8594 15.3374C11.7307 15.5745 12.6589 15.4509 13.4408 14.9937ZM9.21851 7.56423C11.6259 6.15289 14.7165 6.9938 16.1059 9.43981C16.7726 10.6165 16.9528 12.014 16.6068 13.3255C16.2608 14.637 15.417 15.7555 14.2605 16.4353C13.1024 17.1139 11.7267 17.2977 10.4354 16.9464C9.14409 16.595 8.04274 15.7372 7.37313 14.5613C7.04033 13.9795 6.82447 13.3364 6.73807 12.6692C6.65168 12.002 6.69647 11.324 6.86984 10.6745C7.03946 10.0239 7.33438 9.41401 7.73754 8.88013C8.1407 8.34625 8.64407 7.89898 9.21851 7.56423ZM5.8953 15.4278C7.10014 17.5483 6.63498 20.1873 4.92305 21.7722C4.46888 21.446 4.03821 21.0873 3.63433 20.6988C4.27518 20.1846 4.71274 19.4533 4.86715 18.6385C5.02156 17.8236 4.88253 16.9795 4.47543 16.2602C4.25284 15.8662 3.95559 15.521 3.60088 15.2445C3.24616 14.9681 2.84102 14.7659 2.40891 14.6496C1.70105 14.4551 0.950097 14.5006 0.269944 14.7791C0.141191 14.23 0.0509821 13.6724 0 13.1104C0.918324 12.8107 1.90226 12.7867 2.83365 13.0414C3.47389 13.2139 4.07414 13.5136 4.59967 13.9234C5.12519 14.3331 5.56556 14.844 5.8953 15.4278ZM17.0812 4.68575C17.3294 3.73896 17.8416 2.88525 18.556 2.22734C19.01 2.55343 19.4406 2.91188 19.8447 3.29999C19.2672 3.75901 18.8526 4.39675 18.6635 5.11667C18.5467 5.55497 18.5167 6.01246 18.575 6.46265C18.6334 6.91285 18.7791 7.3468 19.0036 7.73938C19.2261 8.13344 19.5233 8.4787 19.878 8.75517C20.2328 9.03162 20.638 9.23377 21.0701 9.3499C21.7869 9.54599 22.5304 9.49561 23.2083 9.21892C23.338 9.77075 23.4279 10.3265 23.4783 10.883C22.9876 11.0464 22.4749 11.1314 21.9585 11.1348C21.5153 11.1346 21.0741 11.0752 20.6461 10.9581C20.0059 10.7859 19.4056 10.4863 18.8801 10.0767C18.3546 9.66703 17.9142 9.15554 17.5845 8.57177C17.2517 7.99015 17.0358 7.34714 16.9494 6.68006C16.863 6.01298 16.9078 5.3351 17.0812 4.68575ZM11.7395 18.855C14.1492 18.855 16.1669 20.5825 16.6626 22.8813C16.1516 23.1208 15.6301 23.3184 15.1031 23.478C14.9846 22.657 14.5798 21.9065 13.9623 21.3635C13.3449 20.8204 12.556 20.521 11.7395 20.5197C10.9235 20.5211 10.1351 20.8203 9.51783 21.3628C8.9006 21.9054 8.49563 22.6552 8.37665 23.4757C7.84372 23.3148 7.32262 23.1159 6.81723 22.8805C7.31289 20.5817 9.32984 18.855 11.7395 18.855ZM11.7395 5.14457C9.32984 5.14457 7.31213 3.41624 6.81647 1.11826C7.32738 0.878774 7.84896 0.681141 8.37589 0.521484C8.49455 1.34244 8.8995 2.09272 9.51691 2.63559C10.1343 3.17847 10.9231 3.4778 11.7395 3.47902C13.4476 3.47902 14.8629 2.19246 15.1024 0.523809C15.6357 0.684216 16.1571 0.883131 16.6626 1.11904C16.1669 3.41702 14.1492 5.14457 11.7395 5.14457ZM20.6461 13.0422C21.5764 12.7872 22.5593 12.8106 23.4767 13.1096C23.4248 13.6719 23.334 14.2297 23.2053 14.7791C22.5261 14.5022 21.7769 14.4568 21.0701 14.6496C20.638 14.7658 20.2328 14.968 19.8781 15.2445C19.5234 15.5209 19.2261 15.8661 19.0036 16.2602C18.7792 16.6528 18.6335 17.0867 18.5752 17.5369C18.5168 17.9871 18.5468 18.4446 18.6635 18.8829C18.8521 19.6024 19.2663 20.2398 19.8432 20.6988C19.4436 21.0824 19.0143 21.442 18.5545 21.7714C17.8404 21.114 17.3285 20.2608 17.0804 19.3146C16.7319 17.9931 16.9104 16.6128 17.5837 15.4278C18.2571 14.2427 19.3452 13.3956 20.6454 13.0414L20.6461 13.0422ZM2.83289 10.9581C2.40467 11.0752 1.9632 11.1346 1.51977 11.1348C1.0042 11.1315 0.49228 11.0468 0.00228766 10.8837C0.0541413 10.3234 0.144885 9.76764 0.273757 9.22124C0.950142 9.4956 1.69211 9.54521 2.40891 9.3499C2.84105 9.23373 3.24623 9.03157 3.60095 8.75511C3.95568 8.47866 4.25291 8.13342 4.47543 7.73938C4.69996 7.34695 4.84563 6.91313 4.90401 6.46306C4.96239 6.01298 4.93232 5.55561 4.81553 5.11744C4.62673 4.39781 4.21233 3.76033 3.63509 3.30154C4.03917 2.91323 4.46982 2.55452 4.92381 2.22811C5.6379 2.88583 6.14978 3.73928 6.39782 4.68575C6.57097 5.33513 6.61564 6.01296 6.52925 6.68001C6.44286 7.34705 6.22712 7.99005 5.89454 8.57177C5.56476 9.15549 5.12436 9.66693 4.59884 10.0766C4.07331 10.4862 3.47308 10.7858 2.83289 10.9581Z" fill="#141417"/>
</g>
<defs>
<clipPath id="clip0_4045_16067">
<path d="M0 0H24V24H0V0Z" fill="white"/>
</clipPath>
</defs>
</svg>
